<svg width="393" height="852" viewBox="0 0 393 852" fill="none" xmlns="http://www.w3.org/2000/svg">
<rect width="393" height="852" fill="#29C940"/>
<rect x="167" y="369" width="60" height="60" rx="18" fill="white"/>
<path d="M195.333 382.333V385.667H188.667V412.333H205.333V397.333H208.667V414C208.667 414.92 207.92 415.667 207 415.667H187C186.08 415.667 185.333 414.92 185.333 414V384C185.333 383.08 186.08 382.333 187 382.333H195.333ZM198.667 390.667C200.508 390.667 202 392.159 202 394H198.667V390.667ZM198.667 385.667C203.269 385.667 207 389.398 207 394H203.667C203.667 391.239 201.428 389 198.667 389V385.667ZM198.667 380.667C206.03 380.667 212 386.636 212 394H208.667C208.667 388.477 204.189 384 198.667 384V380.667Z" fill="#29C940"/>
<path d="M112.869 475V445.909H118.139V470.582H130.952V475H112.869ZM144.815 475.426C142.685 475.426 140.838 474.957 139.276 474.02C137.713 473.082 136.501 471.771 135.639 470.085C134.787 468.4 134.361 466.43 134.361 464.176C134.361 461.922 134.787 459.948 135.639 458.253C136.501 456.558 137.713 455.241 139.276 454.304C140.838 453.366 142.685 452.898 144.815 452.898C146.946 452.898 148.793 453.366 150.355 454.304C151.918 455.241 153.125 456.558 153.977 458.253C154.839 459.948 155.27 461.922 155.27 464.176C155.27 466.43 154.839 468.4 153.977 470.085C153.125 471.771 151.918 473.082 150.355 474.02C148.793 474.957 146.946 475.426 144.815 475.426ZM144.844 471.307C145.999 471.307 146.965 470.99 147.741 470.355C148.518 469.711 149.096 468.849 149.474 467.77C149.863 466.69 150.057 465.488 150.057 464.162C150.057 462.827 149.863 461.619 149.474 460.54C149.096 459.451 148.518 458.584 147.741 457.94C146.965 457.296 145.999 456.974 144.844 456.974C143.66 456.974 142.675 457.296 141.889 457.94C141.113 458.584 140.53 459.451 140.142 460.54C139.763 461.619 139.574 462.827 139.574 464.162C139.574 465.488 139.763 466.69 140.142 467.77C140.53 468.849 141.113 469.711 141.889 470.355C142.675 470.99 143.66 471.307 144.844 471.307ZM169.151 475.426C166.973 475.426 165.103 474.948 163.54 473.991C161.987 473.035 160.79 471.714 159.947 470.028C159.113 468.333 158.697 466.383 158.697 464.176C158.697 461.96 159.123 460.005 159.975 458.31C160.827 456.605 162.03 455.279 163.583 454.332C165.146 453.376 166.992 452.898 169.123 452.898C170.894 452.898 172.461 453.224 173.825 453.878C175.198 454.522 176.291 455.436 177.106 456.619C177.92 457.794 178.384 459.167 178.498 460.739H173.583C173.384 459.687 172.911 458.812 172.163 458.111C171.424 457.401 170.434 457.045 169.194 457.045C168.143 457.045 167.219 457.33 166.424 457.898C165.629 458.456 165.008 459.261 164.563 460.312C164.128 461.364 163.91 462.623 163.91 464.091C163.91 465.578 164.128 466.856 164.563 467.926C164.999 468.987 165.61 469.806 166.396 470.384C167.191 470.952 168.124 471.236 169.194 471.236C169.951 471.236 170.629 471.094 171.225 470.81C171.831 470.516 172.338 470.095 172.745 469.545C173.152 468.996 173.432 468.329 173.583 467.543H178.498C178.375 469.086 177.92 470.455 177.134 471.648C176.348 472.831 175.278 473.759 173.924 474.432C172.57 475.095 170.979 475.426 169.151 475.426ZM188.999 475.44C187.616 475.44 186.371 475.194 185.263 474.702C184.164 474.2 183.293 473.461 182.649 472.486C182.015 471.51 181.697 470.308 181.697 468.878C181.697 467.647 181.925 466.629 182.379 465.824C182.834 465.019 183.454 464.375 184.24 463.892C185.026 463.409 185.911 463.045 186.896 462.798C187.891 462.543 188.918 462.358 189.979 462.244C191.257 462.112 192.294 461.993 193.089 461.889C193.885 461.776 194.463 461.605 194.822 461.378C195.192 461.141 195.376 460.777 195.376 460.284V460.199C195.376 459.129 195.059 458.3 194.425 457.713C193.79 457.126 192.876 456.832 191.683 456.832C190.424 456.832 189.425 457.107 188.686 457.656C187.957 458.205 187.464 458.854 187.209 459.602L182.408 458.92C182.786 457.595 183.411 456.487 184.283 455.597C185.154 454.697 186.219 454.025 187.479 453.58C188.738 453.125 190.13 452.898 191.655 452.898C192.706 452.898 193.752 453.021 194.794 453.267C195.836 453.513 196.787 453.92 197.649 454.489C198.511 455.047 199.202 455.81 199.723 456.776C200.253 457.741 200.518 458.949 200.518 460.398V475H195.575V472.003H195.405C195.092 472.609 194.652 473.177 194.084 473.707C193.525 474.228 192.82 474.65 191.967 474.972C191.125 475.284 190.135 475.44 188.999 475.44ZM190.334 471.662C191.366 471.662 192.261 471.458 193.018 471.051C193.776 470.634 194.358 470.085 194.766 469.403C195.182 468.722 195.391 467.978 195.391 467.173V464.602C195.23 464.735 194.955 464.858 194.567 464.972C194.188 465.085 193.762 465.185 193.288 465.27C192.815 465.355 192.346 465.431 191.882 465.497C191.418 465.563 191.016 465.62 190.675 465.668C189.908 465.772 189.221 465.942 188.615 466.179C188.009 466.416 187.531 466.747 187.18 467.173C186.83 467.59 186.655 468.13 186.655 468.793C186.655 469.74 187 470.455 187.692 470.938C188.383 471.42 189.264 471.662 190.334 471.662ZM210.831 445.909V475H205.689V445.909H210.831ZM221.261 445.909V475H216.119V445.909H221.261ZM226.548 475V453.182H231.69V475H226.548ZM229.134 450.085C228.319 450.085 227.618 449.815 227.031 449.276C226.444 448.726 226.151 448.068 226.151 447.301C226.151 446.525 226.444 445.866 227.031 445.327C227.618 444.777 228.319 444.503 229.134 444.503C229.957 444.503 230.658 444.777 231.236 445.327C231.823 445.866 232.116 446.525 232.116 447.301C232.116 448.068 231.823 448.726 231.236 449.276C230.658 449.815 229.957 450.085 229.134 450.085ZM242.12 462.216V475H236.978V453.182H241.893V456.889H242.148C242.65 455.668 243.451 454.697 244.549 453.977C245.657 453.258 247.025 452.898 248.654 452.898C250.16 452.898 251.471 453.22 252.589 453.864C253.716 454.508 254.587 455.44 255.202 456.662C255.827 457.884 256.135 459.366 256.126 461.108V475H250.984V461.903C250.984 460.445 250.605 459.304 249.847 458.48C249.099 457.656 248.062 457.244 246.737 457.244C245.837 457.244 245.037 457.443 244.336 457.841C243.645 458.229 243.1 458.793 242.702 459.531C242.314 460.27 242.12 461.165 242.12 462.216ZM270.842 483.636C268.995 483.636 267.409 483.385 266.083 482.884C264.757 482.391 263.692 481.728 262.887 480.895C262.082 480.062 261.523 479.138 261.211 478.125L265.842 477.003C266.05 477.429 266.353 477.85 266.751 478.267C267.148 478.693 267.683 479.044 268.356 479.318C269.038 479.602 269.895 479.744 270.927 479.744C272.385 479.744 273.593 479.389 274.549 478.679C275.505 477.978 275.984 476.823 275.984 475.213V471.08H275.728C275.463 471.61 275.075 472.154 274.563 472.713C274.061 473.272 273.394 473.741 272.56 474.119C271.737 474.498 270.7 474.688 269.45 474.688C267.773 474.688 266.254 474.295 264.89 473.509C263.536 472.713 262.456 471.529 261.651 469.957C260.856 468.376 260.458 466.397 260.458 464.02C260.458 461.624 260.856 459.602 261.651 457.955C262.456 456.297 263.54 455.043 264.904 454.19C266.268 453.329 267.788 452.898 269.464 452.898C270.742 452.898 271.793 453.116 272.617 453.551C273.451 453.977 274.113 454.493 274.606 455.099C275.098 455.696 275.472 456.259 275.728 456.79H276.012V453.182H281.083V475.355C281.083 477.221 280.638 478.764 279.748 479.986C278.858 481.207 277.641 482.121 276.097 482.727C274.554 483.333 272.802 483.636 270.842 483.636ZM270.884 470.653C271.973 470.653 272.901 470.388 273.668 469.858C274.435 469.328 275.018 468.565 275.415 467.571C275.813 466.577 276.012 465.384 276.012 463.991C276.012 462.618 275.813 461.416 275.415 460.384C275.027 459.351 274.45 458.551 273.683 457.983C272.925 457.405 271.992 457.116 270.884 457.116C269.738 457.116 268.782 457.415 268.015 458.011C267.248 458.608 266.67 459.427 266.282 460.469C265.894 461.501 265.7 462.675 265.7 463.991C265.7 465.327 265.894 466.496 266.282 467.5C266.68 468.494 267.262 469.271 268.029 469.83C268.806 470.379 269.757 470.653 270.884 470.653Z" fill="white"/>
</svg>
